<?xml version="1.0" standalone="no"?><!DOCTYPE svg PUBLIC "-//W3C//DTD SVG 1.1//EN" "http://www.w3.org/Graphics/SVG/1.1/DTD/svg11.dtd"><svg t="1563123131231" class="icon" viewBox="0 0 1026 1024" version="1.1" xmlns="http://www.w3.org/2000/svg" p-id="7542" width="48.09375" height="48" xmlns:xlink="http://www.w3.org/1999/xlink"><defs><style type="text/css"></style></defs><path d="M811.985 328.552c-57.14 0-101.498 44.358-101.498 101.498s44.358 101.498 101.498 101.498 101.497-44.359 101.497-101.498c0.752-57.14-44.358-101.498-101.497-101.498z m0 163.9c-35.337 0-62.403-27.066-62.403-62.402s27.066-62.402 62.403-62.402c35.336 0 62.402 27.066 62.402 62.402s-26.314 62.402-62.402 62.402z m-600.717-163.9c-57.14 0-101.498 44.358-101.498 101.498s44.358 101.498 101.498 101.498 101.498-44.359 101.498-101.498-44.359-101.498-101.498-101.498z m0 163.9c-35.336 0-62.402-27.066-62.402-62.402s27.066-62.402 62.402-62.402 62.402 27.066 62.402 62.402-27.066 62.402-62.402 62.402z m539.066-281.186c0-57.14-44.358-101.498-101.498-101.498s-101.498 44.358-101.498 101.498 44.359 101.498 101.498 101.498c56.388 0 101.498-44.359 101.498-101.498z m-102.25 62.402c-35.336 0-62.402-27.066-62.402-62.402s27.066-62.403 62.402-62.403 62.403 27.067 62.403 62.403-26.314 62.402-62.403 62.402z m-272.916-163.9c-57.14 0-101.498 44.358-101.498 101.498s44.359 101.498 101.498 101.498 101.498-44.359 101.498-101.498-44.358-101.498-101.498-101.498z m0 163.9c-35.336 0-62.402-27.066-62.402-62.402s27.066-62.403 62.402-62.403 62.402 27.067 62.402 62.403-27.066 62.402-62.402 62.402z" fill="" p-id="7543"></path><path d="M272.167 921.75l62.402 27.818c54.884 22.555 115.03 34.585 177.433 34.585 35.336 0 62.403-27.066 62.403-62.403 0-15.788-6.015-30.073-15.789-40.599-18.044-18.044-27.818-42.103-27.818-68.417 0-57.14 44.358-101.498 101.498-101.498h98.49c139.842 0 253.369-113.527 253.369-253.368 0-230.062-212.018-417.269-472.153-417.269C251.115 39.847 39.85 251.865 39.85 512c0 124.053 43.607 231.565 121.798 316.523 3.759 15.036-3.007 25.562-16.54 26.314-9.023 0.752-18.796-8.27-18.796-8.27l-4.511-3.76c-4.511-5.262-8.27-9.773-12.782-15.036C41.353 740.558 0.002 630.79 0.002 512 0.002 230.062 229.312 0.752 511.25 0.752S1022.5 206.002 1022.5 457.868c0 161.644-131.572 293.216-293.216 293.216h-96.987c-35.336 0-62.402 27.066-62.402 62.402 0 15.789 6.014 30.073 15.788 40.6 18.044 18.043 27.818 42.102 27.818 68.416 0 57.14-44.358 101.498-101.498 101.498-93.227 0-180.44-24.81-255.624-68.417-0.752-0.752-17.292-28.57 15.789-33.833z" fill="" p-id="7544"></path></svg>